<svg height="512" viewBox="0 0 58 58" width="512" xmlns="http://www.w3.org/2000/svg"><g id="001---No-Fire" fill="none" fill-rule="evenodd"><circle id="Oval" cx="29" cy="29" fill="#e64c3c" fill-rule="nonzero" r="29"/><circle id="Oval" cx="29" cy="29" fill="#fff" fill-rule="nonzero" r="25"/><path id="Shape" d="m27.98 33.22c.64 4.5-3.71 6.18-3.71 9.69-.0812076 1.7907162.827886 3.4812789 2.3665697 4.4009048 1.5386838.9196258 3.4581768.9196258 4.9968606 0 1.5386837-.9196259 2.4477773-2.6101886 2.3665697-4.4009048-.0921919-1.9299206-.696183-3.8005672-1.75-5.42l6.4 6.4c-2.4779252 2.6080542-5.9125355 4.0924126-9.51 4.11-7.571 0-13.14-5.759-13.14-12.41 0-3.78 2.27-6.68 4.65-9.7l3.53-4.95c1.8696315-3.1020196 2.4031929-6.8290127 1.479-10.331-.054619-.210656.0332893-.4324478.2173945-.5484843.1841052-.11603655.4221208-.09966582.5886055.0404843 2.0396025 1.7973103 3.9744461 3.7101177 5.795 5.729 2.0336566 2.2175574 3.155099 5.1211643 3.14 8.13.0194914 2.3957919-.3728857 4.7771148-1.16 7.04l1.26 1.26c1.8391125-.4637787 3.4062219-1.6641562 4.333-3.319.0998378-.1716874.2908825-.2690938.4884744-.2490545.197592.0200393.3651904.1538184.4285256.3420545 1.202445 2.9753671 1.5184815 6.2350583.91 9.386z" fill="#464f5d"/><path id="Shape" d="m43.86 49.1-34.96-34.96 1.5-2.61 2.627-1.74 35.193 35.19-1.874 2.743z" fill="#e64c3c"/></g></svg>